<mxfile host="app.diagrams.net" agent="Mozilla/5.0 (Windows NT 10.0; Win64; x64) AppleWebKit/537.36 (KHTML, like Gecko) Chrome/131.0.0.0 Safari/537.36" version="26.0.2">
  <diagram name="Page-1" id="tctH0HEX54gWm2UnL83J">
    <mxGraphModel dx="685" dy="434" grid="1" gridSize="10" guides="1" tooltips="1" connect="1" arrows="1" fold="1" page="1" pageScale="1" pageWidth="850" pageHeight="1100" math="0" shadow="0">
      <root>
        <mxCell id="0" />
        <mxCell id="1" parent="0" />
        <mxCell id="A66OA4wSnj8svBYIneyi-4" value="" style="endArrow=none;html=1;rounded=0;" edge="1" parent="1" source="A66OA4wSnj8svBYIneyi-28">
          <mxGeometry width="50" height="50" relative="1" as="geometry">
            <mxPoint x="280" y="280" as="sourcePoint" />
            <mxPoint x="560" y="280" as="targetPoint" />
          </mxGeometry>
        </mxCell>
        <mxCell id="A66OA4wSnj8svBYIneyi-7" value="" style="endArrow=none;html=1;rounded=0;" edge="1" parent="1" source="A66OA4wSnj8svBYIneyi-27">
          <mxGeometry width="50" height="50" relative="1" as="geometry">
            <mxPoint x="280" y="320" as="sourcePoint" />
            <mxPoint x="560" y="320" as="targetPoint" />
          </mxGeometry>
        </mxCell>
        <mxCell id="A66OA4wSnj8svBYIneyi-8" value="" style="endArrow=none;html=1;rounded=0;" edge="1" parent="1" source="A66OA4wSnj8svBYIneyi-26">
          <mxGeometry width="50" height="50" relative="1" as="geometry">
            <mxPoint x="280" y="360" as="sourcePoint" />
            <mxPoint x="560" y="360" as="targetPoint" />
          </mxGeometry>
        </mxCell>
        <mxCell id="A66OA4wSnj8svBYIneyi-11" value="" style="shape=requiredInterface;html=1;verticalLabelPosition=bottom;sketch=0;" vertex="1" parent="1">
          <mxGeometry x="410" y="260" width="30" height="120" as="geometry" />
        </mxCell>
        <mxCell id="A66OA4wSnj8svBYIneyi-28" value="" style="ellipse;whiteSpace=wrap;html=1;aspect=fixed;" vertex="1" parent="1">
          <mxGeometry x="550" y="280" width="10" height="10" as="geometry" />
        </mxCell>
        <mxCell id="A66OA4wSnj8svBYIneyi-27" value="" style="ellipse;whiteSpace=wrap;html=1;aspect=fixed;" vertex="1" parent="1">
          <mxGeometry x="550" y="320" width="10" height="10" as="geometry" />
        </mxCell>
        <mxCell id="A66OA4wSnj8svBYIneyi-26" value="" style="ellipse;whiteSpace=wrap;html=1;aspect=fixed;" vertex="1" parent="1">
          <mxGeometry x="550" y="360" width="10" height="10" as="geometry" />
        </mxCell>
        <mxCell id="A66OA4wSnj8svBYIneyi-35" value="" style="endArrow=none;html=1;rounded=0;" edge="1" parent="1" target="A66OA4wSnj8svBYIneyi-25">
          <mxGeometry width="50" height="50" relative="1" as="geometry">
            <mxPoint x="280" y="280" as="sourcePoint" />
            <mxPoint x="550" y="285" as="targetPoint" />
          </mxGeometry>
        </mxCell>
        <mxCell id="A66OA4wSnj8svBYIneyi-25" value="" style="ellipse;whiteSpace=wrap;html=1;aspect=fixed;" vertex="1" parent="1">
          <mxGeometry x="280" y="280" width="10" height="10" as="geometry" />
        </mxCell>
        <mxCell id="A66OA4wSnj8svBYIneyi-37" value="" style="endArrow=none;html=1;rounded=0;" edge="1" parent="1" target="A66OA4wSnj8svBYIneyi-36">
          <mxGeometry width="50" height="50" relative="1" as="geometry">
            <mxPoint x="280" y="320" as="sourcePoint" />
            <mxPoint x="550" y="325" as="targetPoint" />
          </mxGeometry>
        </mxCell>
        <mxCell id="A66OA4wSnj8svBYIneyi-36" value="" style="ellipse;whiteSpace=wrap;html=1;aspect=fixed;" vertex="1" parent="1">
          <mxGeometry x="280" y="320" width="10" height="10" as="geometry" />
        </mxCell>
        <mxCell id="A66OA4wSnj8svBYIneyi-38" value="" style="endArrow=none;html=1;rounded=0;" edge="1" parent="1" target="A66OA4wSnj8svBYIneyi-16">
          <mxGeometry width="50" height="50" relative="1" as="geometry">
            <mxPoint x="280" y="360" as="sourcePoint" />
            <mxPoint x="550" y="365" as="targetPoint" />
          </mxGeometry>
        </mxCell>
        <mxCell id="A66OA4wSnj8svBYIneyi-16" value="" style="ellipse;whiteSpace=wrap;html=1;aspect=fixed;" vertex="1" parent="1">
          <mxGeometry x="280" y="360" width="10" height="10" as="geometry" />
        </mxCell>
        <mxCell id="A66OA4wSnj8svBYIneyi-39" value="" style="endArrow=classic;html=1;rounded=0;fillColor=#d5e8d4;strokeColor=#82b366;" edge="1" parent="1">
          <mxGeometry width="50" height="50" relative="1" as="geometry">
            <mxPoint x="310" y="277" as="sourcePoint" />
            <mxPoint x="540" y="277" as="targetPoint" />
          </mxGeometry>
        </mxCell>
        <mxCell id="A66OA4wSnj8svBYIneyi-42" value="" style="endArrow=classic;html=1;rounded=0;fillColor=#d5e8d4;strokeColor=#82b366;" edge="1" parent="1">
          <mxGeometry width="50" height="50" relative="1" as="geometry">
            <mxPoint x="540" y="293" as="sourcePoint" />
            <mxPoint x="311" y="293" as="targetPoint" />
          </mxGeometry>
        </mxCell>
        <mxCell id="A66OA4wSnj8svBYIneyi-45" value="" style="endArrow=none;html=1;rounded=0;exitX=1;exitY=0.5;exitDx=0;exitDy=0;entryX=0;entryY=0.5;entryDx=0;entryDy=0;" edge="1" parent="1" source="A66OA4wSnj8svBYIneyi-25" target="A66OA4wSnj8svBYIneyi-28">
          <mxGeometry width="50" height="50" relative="1" as="geometry">
            <mxPoint x="400" y="420" as="sourcePoint" />
            <mxPoint x="570" y="500" as="targetPoint" />
          </mxGeometry>
        </mxCell>
        <mxCell id="A66OA4wSnj8svBYIneyi-49" value="" style="endArrow=classic;html=1;rounded=0;fillColor=#d5e8d4;strokeColor=#82b366;" edge="1" parent="1">
          <mxGeometry width="50" height="50" relative="1" as="geometry">
            <mxPoint x="310" y="316.71" as="sourcePoint" />
            <mxPoint x="540" y="316.71" as="targetPoint" />
          </mxGeometry>
        </mxCell>
        <mxCell id="A66OA4wSnj8svBYIneyi-50" value="" style="endArrow=classic;html=1;rounded=0;fillColor=#d5e8d4;strokeColor=#82b366;" edge="1" parent="1">
          <mxGeometry width="50" height="50" relative="1" as="geometry">
            <mxPoint x="540" y="332.71" as="sourcePoint" />
            <mxPoint x="311" y="332.71" as="targetPoint" />
          </mxGeometry>
        </mxCell>
        <mxCell id="A66OA4wSnj8svBYIneyi-51" value="" style="endArrow=none;html=1;rounded=0;exitX=1;exitY=0.5;exitDx=0;exitDy=0;entryX=0;entryY=0.5;entryDx=0;entryDy=0;" edge="1" parent="1">
          <mxGeometry width="50" height="50" relative="1" as="geometry">
            <mxPoint x="290" y="324.71" as="sourcePoint" />
            <mxPoint x="550" y="324.71" as="targetPoint" />
          </mxGeometry>
        </mxCell>
        <mxCell id="A66OA4wSnj8svBYIneyi-52" value="" style="endArrow=classic;html=1;rounded=0;fillColor=#d5e8d4;strokeColor=#82b366;" edge="1" parent="1">
          <mxGeometry width="50" height="50" relative="1" as="geometry">
            <mxPoint x="310" y="357" as="sourcePoint" />
            <mxPoint x="540" y="357" as="targetPoint" />
          </mxGeometry>
        </mxCell>
        <mxCell id="A66OA4wSnj8svBYIneyi-53" value="" style="endArrow=classic;html=1;rounded=0;fillColor=#d5e8d4;strokeColor=#82b366;" edge="1" parent="1">
          <mxGeometry width="50" height="50" relative="1" as="geometry">
            <mxPoint x="540" y="373" as="sourcePoint" />
            <mxPoint x="311" y="373" as="targetPoint" />
          </mxGeometry>
        </mxCell>
        <mxCell id="A66OA4wSnj8svBYIneyi-54" value="" style="endArrow=none;html=1;rounded=0;exitX=1;exitY=0.5;exitDx=0;exitDy=0;entryX=0;entryY=0.5;entryDx=0;entryDy=0;" edge="1" parent="1">
          <mxGeometry width="50" height="50" relative="1" as="geometry">
            <mxPoint x="290" y="365" as="sourcePoint" />
            <mxPoint x="550" y="365" as="targetPoint" />
          </mxGeometry>
        </mxCell>
        <mxCell id="A66OA4wSnj8svBYIneyi-55" value="" style="endArrow=classic;html=1;rounded=0;exitX=0;exitY=1;exitDx=0;exitDy=0;fillColor=#f8cecc;strokeColor=#b85450;" edge="1" parent="1" source="A66OA4wSnj8svBYIneyi-28">
          <mxGeometry width="50" height="50" relative="1" as="geometry">
            <mxPoint x="550" y="460" as="sourcePoint" />
            <mxPoint x="520" y="160" as="targetPoint" />
            <Array as="points">
              <mxPoint x="520" y="240" />
            </Array>
          </mxGeometry>
        </mxCell>
        <mxCell id="A66OA4wSnj8svBYIneyi-56" value="" style="endArrow=classic;html=1;rounded=0;fillColor=#f8cecc;strokeColor=#b85450;exitX=0;exitY=0.5;exitDx=0;exitDy=0;" edge="1" parent="1" source="A66OA4wSnj8svBYIneyi-27">
          <mxGeometry width="50" height="50" relative="1" as="geometry">
            <mxPoint x="430" y="320" as="sourcePoint" />
            <mxPoint x="500" y="160" as="targetPoint" />
            <Array as="points">
              <mxPoint x="500" y="240" />
            </Array>
          </mxGeometry>
        </mxCell>
        <mxCell id="A66OA4wSnj8svBYIneyi-57" value="" style="endArrow=classic;html=1;rounded=0;fillColor=#f8cecc;strokeColor=#b85450;exitX=0;exitY=0.5;exitDx=0;exitDy=0;" edge="1" parent="1" source="A66OA4wSnj8svBYIneyi-26">
          <mxGeometry width="50" height="50" relative="1" as="geometry">
            <mxPoint x="430" y="320" as="sourcePoint" />
            <mxPoint x="480" y="160" as="targetPoint" />
            <Array as="points">
              <mxPoint x="480" y="240" />
            </Array>
          </mxGeometry>
        </mxCell>
        <mxCell id="A66OA4wSnj8svBYIneyi-58" value="IXIA" style="rounded=0;whiteSpace=wrap;html=1;" vertex="1" parent="1">
          <mxGeometry x="440" y="100" width="120" height="60" as="geometry" />
        </mxCell>
        <mxCell id="A66OA4wSnj8svBYIneyi-59" value="Test Req" style="text;html=1;align=center;verticalAlign=middle;whiteSpace=wrap;rounded=0;fontSize=8;" vertex="1" parent="1">
          <mxGeometry x="306" y="348" width="40" height="10" as="geometry" />
        </mxCell>
        <mxCell id="A66OA4wSnj8svBYIneyi-61" value="&lt;span style=&quot;color: rgb(0, 0, 0); font-family: Helvetica; font-size: 8px; font-style: normal; font-variant-ligatures: normal; font-variant-caps: normal; font-weight: 400; letter-spacing: normal; orphans: 2; text-align: center; text-indent: 0px; text-transform: none; widows: 2; word-spacing: 0px; -webkit-text-stroke-width: 0px; white-space: normal; background-color: rgb(251, 251, 251); text-decoration-thickness: initial; text-decoration-style: initial; text-decoration-color: initial; float: none; display: inline !important;&quot;&gt;Test Reply&lt;/span&gt;" style="text;whiteSpace=wrap;html=1;" vertex="1" parent="1">
          <mxGeometry x="503" y="365" width="40" height="20" as="geometry" />
        </mxCell>
        <mxCell id="A66OA4wSnj8svBYIneyi-65" value="" style="group" vertex="1" connectable="0" parent="1">
          <mxGeometry x="560" y="220" width="160" height="200" as="geometry" />
        </mxCell>
        <mxCell id="A66OA4wSnj8svBYIneyi-3" value="" style="shape=cylinder3;whiteSpace=wrap;html=1;boundedLbl=1;backgroundOutline=1;size=15;" vertex="1" parent="A66OA4wSnj8svBYIneyi-65">
          <mxGeometry width="160" height="200" as="geometry" />
        </mxCell>
        <mxCell id="A66OA4wSnj8svBYIneyi-15" value="Dut-C" style="text;html=1;align=center;verticalAlign=middle;whiteSpace=wrap;rounded=0;" vertex="1" parent="A66OA4wSnj8svBYIneyi-65">
          <mxGeometry x="50" width="60" height="30" as="geometry" />
        </mxCell>
        <mxCell id="A66OA4wSnj8svBYIneyi-66" value="" style="group" vertex="1" connectable="0" parent="1">
          <mxGeometry x="120" y="220" width="160" height="200" as="geometry" />
        </mxCell>
        <mxCell id="A66OA4wSnj8svBYIneyi-2" value="" style="shape=cylinder3;whiteSpace=wrap;html=1;boundedLbl=1;backgroundOutline=1;size=15;" vertex="1" parent="A66OA4wSnj8svBYIneyi-66">
          <mxGeometry width="160" height="200" as="geometry" />
        </mxCell>
        <mxCell id="A66OA4wSnj8svBYIneyi-14" value="Dut-B" style="text;html=1;align=center;verticalAlign=middle;whiteSpace=wrap;rounded=0;" vertex="1" parent="A66OA4wSnj8svBYIneyi-66">
          <mxGeometry x="50" width="60" height="30" as="geometry" />
        </mxCell>
        <mxCell id="A66OA4wSnj8svBYIneyi-67" value="Mirroring" style="text;html=1;align=center;verticalAlign=middle;whiteSpace=wrap;rounded=0;" vertex="1" parent="1">
          <mxGeometry x="470" y="180" width="60" height="30" as="geometry" />
        </mxCell>
      </root>
    </mxGraphModel>
  </diagram>
</mxfile>
